<svg id="圖層_1" data-name="圖層 1" xmlns="http://www.w3.org/2000/svg" viewBox="0 0 479.78 408.7"><defs><style>.cls-1{fill:#fff;}.cls-2{fill:none;stroke:#fff;stroke-miterlimit:10;stroke-width:20px;}</style></defs><title>cart</title><path class="cls-1" d="M24,85.36c3.25-.26,6.53-.26,9.78-.2q5.22.11,10.41.56c1.89.16,3.77.39,5.66.59,2.71.29-3.47-.53-1.53-.21.6.1,1.2.18,1.8.27,1.23.19,2.46.39,3.68.61A135,135,0,0,1,68.64,90.5c2.45.74,4.87,1.55,7.28,2.44,1.08.4,2.16.85,3.24,1.26,2.88,1.09-2.59-1.25-.74-.31.78.41,1.62.73,2.42,1.11a102.81,102.81,0,0,1,14.53,8.48c.28.2,2.78,2.06.73.5s.43.36.69.58c1,.82,1.94,1.63,2.88,2.48a77.8,77.8,0,0,1,6.78,6.93c.43.49.84,1,1.28,1.51,2.25,2.43-1.35-2.06-.17-.27.84,1.27,1.8,2.47,2.64,3.75a77.66,77.66,0,0,1,5.25,9.22c.59,1.2,2,4.55.76,1.5.7,1.79,1.39,3.58,2,5.4a101.22,101.22,0,0,1,3,11.21c.76,3.66,1.31,7.36,1.86,11.05.34,2.25.66,4.51,1,6.76-.43-3.08.43,3.31.55,4.31,1.13,9.06,2.07,18.15,2.89,27.24,3.14,35.06,4.53,70.28,5.09,105.47.31,19.37.45,38.76,0,58.13-.17,8.11,7,15,15,15H432.33c6.11,0,13.29-4.62,14.47-11l14.08-76.5,22.44-121.92,5.14-28c1.72-9.31-4-19.15-14.46-19l-89.64,1.42-141.63,2.24-32.62.51c-7.84.13-15.37,6.81-15,15,.36,8,6.6,15.13,15,15l89.64-1.41,141.64-2.24,32.61-.52-14.46-19-14.08,76.5L423,327.3l-5.15,28,14.46-11H147.61l15,15A1513.19,1513.19,0,0,0,158,201.52c-1.58-18.78-3.66-37.52-6.6-56.13-2.48-15.63-7.72-31.16-17-44.1-15.66-21.76-39-35.47-64.9-41.64C54.91,56.19,39,54.12,24,55.36c-7.8.65-15.38,6.44-15,15C9.34,77.94,15.63,86.06,24,85.36Z" transform="translate(-8.99 -55)"/><circle class="cls-2" cx="178.9" cy="375.09" r="23.61"/><circle class="cls-2" cx="392.09" cy="375.78" r="16.67"/><path class="cls-1" d="M329.24,180.38c-23.26-4-44.14,9.62-54.3,30.29h25.9c-9.85-20-30.35-34.17-53.11-30.5-21.91,3.54-37.18,23.21-38.65,44.65-1.1,15.87,8.08,29.33,17.71,41,9.13,11.06,19.81,20.84,30.74,30.07,7.39,6.24,15,12.3,22.79,18,3.91,2.85,11.23,2.85,15.14,0a371.09,371.09,0,0,0,37.75-31.37c17.22-16.41,36.38-36.72,32.94-62.34a47.63,47.63,0,0,0-36.91-39.78c-7.65-1.67-16.59,2.29-18.45,10.47-1.73,7.58,2.27,16.67,10.47,18.46,1.57.34,3.08.78,4.62,1.25s-.23-.15-.49-.27a19.52,19.52,0,0,1,1.77.89,36.26,36.26,0,0,1,3.84,2.4c-2.27-1.72,1,1.21,1.71,1.92,1.88,1.79-.5-1.28.77,1,.74,1.31,1.52,2.56,2.18,3.91.76,1.54-.22-.42-.28-.62.26.84.55,1.64.77,2.49a12.34,12.34,0,0,0,.45,1.91c.81,1.65,0-1.91,0,0,0,1.6.1,3.18.09,4.78,0,3.74.94-3.05.06-.15-.21.71-.35,1.45-.57,2.17s-1.77,3.65-.52,1.58c1.38-2.28-.46.79-.72,1.3-.43.8-.88,1.59-1.34,2.37-1.24,2.1-2.62,4.09-4,6.08-1.73,2.42.42-.45-.17.25-.8,1-1.56,1.95-2.36,2.9-1.65,2-3.36,3.9-5.11,5.79-3.6,3.88-7.36,7.61-11.21,11.24-6.84,6.44-14,12.55-21.29,18.44-1.61,1.3-3.24,2.58-4.87,3.86-2.37,1.86,2.36-1.8.74-.57l-1.72,1.32c-1.1.83-2.19,1.65-3.3,2.46h15.14c-1.25-.91-2.47-1.84-3.7-2.77-.6-.46-1.19-.93-1.8-1.38,2,1.45,2.29,1.78.38.28s-3.6-2.85-5.38-4.29a324.57,324.57,0,0,1-26.45-23.7,172.76,172.76,0,0,1-12.5-14c2,2.57.07,0-.72-1.07s-1.48-2.14-2.17-3.24-1.3-2.11-1.89-3.19c-.37-.66-2.5-4.31-1.16-2.09s-.29-.84-.51-1.58a23.73,23.73,0,0,0-.71-2.88c-.76-1.58.2,4.16.24,1.56,0-.92-.09-1.85-.08-2.77s.11-1.8.13-2.71c0-1.67-.68,2,.17-.6.24-.76,1.78-5.46.54-2.56a49.93,49.93,0,0,1,2.45-4.49c1.3-2.32.39-.55-.07,0,.69-.81,1.44-1.56,2.17-2.33.29-.31,2.3-2.1.89-.93s1.3-.86,1.63-1.07c.75-.46,1.52-.84,2.28-1.28,3-1.76-2.11.31,1.33-.53.87-.21,1.79-.48,2.63-.74,2.83-.85-1.11-.27.36-.16.78.06,1.62,0,2.41-.06,1.72,0,2.27.28.26-.13,1.07.22,6.48,2,3.6.72a40.61,40.61,0,0,1,5.16,2.87c2,1.21-1.56-1.39.24.11.9.75,1.77,1.53,2.61,2.35.68.68,1.31,1.4,2,2.09,2.71,2.79-.84-1.72,1.3,1.65a67.59,67.59,0,0,1,3.87,6.77c4.81,9.8,21.08,9.8,25.9,0a57.2,57.2,0,0,1,3-5.49c.54-.86,1.11-1.7,1.7-2.51-.83,1.07-.68.93.43-.42,1-1,1.95-2.09,3-3.06.68-.63,1.38-1.24,2.11-1.82q-1.83,1.44.26,0c1.55-.83,3-1.8,4.61-2.5-2.4,1,.12.1,1.18-.19.8-.21,1.61-.39,2.42-.53-2,.23-2.08.28-.35.14.85,0,5.93.59,2-.08,7.71,1.33,16.53-2,18.45-10.48C341.37,191.55,337.51,181.81,329.24,180.38Z" transform="translate(-8.99 -55)"/></svg>