<svg id="圖層_1" data-name="圖層 1" xmlns="http://www.w3.org/2000/svg" viewBox="0 0 471.64 487.89"><defs><style>.cls-1{fill:#fff;}</style></defs><title>search</title><path class="cls-1" d="M356,192.5q0,6.66-.51,13.3c-.16,2.08-.35,4.15-.59,6.21-.1.91-.21,1.83-.33,2.74.43-3.24-.15.76-.26,1.45a169.09,169.09,0,0,1-6,25c-1.3,4-2.76,8-4.34,11.93-1,2.4,1.46-3.18-.3.7-.37.81-.72,1.62-1.09,2.42-.92,2-1.87,4-2.87,6a172.64,172.64,0,0,1-12.89,21.45c-1.26,1.78-2.55,3.55-3.89,5.29,1.8-2.34-1.61,1.95-2.15,2.6q-4.2,5-8.76,9.74-4.11,4.25-8.49,8.18c-1.47,1.32-2.95,2.61-4.46,3.87l-2,1.67c-.66.55-1.36,1.1-2,1.64,1.14-.87,1.29-1,.44-.34A171.4,171.4,0,0,1,274.56,330q-5.22,2.88-10.62,5.37c-.79.37-5.88,2.55-3.12,1.42-2.26.92-4.54,1.81-6.84,2.64a169.69,169.69,0,0,1-24.65,6.88c-2,.4-4,.77-6,1.09l-2.72.42c3-.45,0,0-.78.09q-6.92.81-13.87,1.06a172.87,172.87,0,0,1-26.53-1.06c-.75-.09-3.78-.54-.78-.09l-2.72-.42q-3.36-.54-6.71-1.22-6.3-1.29-12.49-3t-12.12-3.94c-1.67-.61-3.32-1.27-5-1.91-4-1.53,1.66.75-.71-.29-1.22-.53-2.43-1.07-3.64-1.63a171.53,171.53,0,0,1-21.91-12.16c-3.48-2.28-6.89-4.67-10.19-7.21,2.31,1.77-1.36-1.12-2.1-1.73q-3-2.5-5.94-5.15a172,172,0,0,1-17.19-18c-.61-.74-3.5-4.41-1.73-2.1-1.34-1.74-2.63-3.51-3.89-5.29q-3.8-5.39-7.16-11-3-5.1-5.73-10.41c-.8-1.57-1.57-3.15-2.32-4.76-.56-1.21-1.09-2.42-1.64-3.63-1.33-2.94.72,2-.55-1.32a187.8,187.8,0,0,1-7.72-24.29q-1.41-6-2.39-12c-.15-.91-.28-1.81-.42-2.72.46,3,0,0-.09-.78q-.45-3.8-.72-7.59a173.81,173.81,0,0,1,.1-26.61q.22-2.76.54-5.51c0-.39.69-4.91.17-1.47.14-.91.27-1.81.42-2.72q1.08-6.71,2.71-13.33a174.05,174.05,0,0,1,7.9-24.2c-1.16,2.83,1.05-2.34,1.42-3.12q1.24-2.7,2.59-5.36,3-5.9,6.41-11.54c2-3.38,4.21-6.68,6.48-9.91,1.14-1.61,2.3-3.19,3.49-4.76,1.54-2-2.21,2.65.48-.59.83-1,1.65-2,2.49-3A172.44,172.44,0,0,1,96,75.09c1.47-1.33,3-2.62,4.47-3.85.65-.54,4.94-3.95,2.6-2.15q5.22-4,10.74-7.57a170.85,170.85,0,0,1,22-12.08l2.42-1.09c3.88-1.76-1.7.67.7-.3,1.86-.75,3.72-1.48,5.6-2.16q6.3-2.31,12.77-4.12,5.87-1.64,11.84-2.86c2.23-.45,4.46-.85,6.71-1.22l2.72-.42c-3.33.51,1.15-.14,1.47-.17a173,173,0,0,1,26.54-1c4.17.17,8.34.49,12.48,1-.12,0,4.35.58,2.11.25s2.19.36,2.08.34q3.36.54,6.71,1.22a169.61,169.61,0,0,1,24.61,7c2.09.76,4.16,1.57,6.21,2.41-2.72-1.11,1.63.73,2.51,1.14q6,2.74,11.81,6A169.13,169.13,0,0,1,296,69.09c-2.29-1.76,0,0,.57.49.84.7,1.7,1.38,2.53,2.08,1.34,1.12,2.67,2.27,4,3.43q4.89,4.36,9.44,9.09,4.08,4.25,7.88,8.77c.7.83,1.38,1.69,2.08,2.53.46.55,2.25,2.86.49.57,1.34,1.74,2.63,3.51,3.89,5.29a172.64,172.64,0,0,1,12.89,21.45c1,2,2,4,2.87,6,.41.88,2.25,5.23,1.14,2.51,1.68,4.12,3.23,8.3,4.59,12.54a169.09,169.09,0,0,1,6,25c0-.11.67,4.32.34,2.08s.27,2.23.25,2.11c.21,1.83.39,3.66.54,5.51.37,4.66.54,9.33.56,14,0,7.85,6.88,15.36,15,15s15-6.59,15-15c-.15-38.14-11.78-76.28-34.06-107.37A190.22,190.22,0,0,0,262.49,17C190.14-9.52,105,13.67,56.19,73.25A189.4,189.4,0,0,0,13.56,178.5,186,186,0,0,0,39.81,288.89C59,320.58,88,346.82,121.82,362a190.24,190.24,0,0,0,115.4,13.13c74.23-14.81,134.66-77.43,146.24-152.33A203.63,203.63,0,0,0,386,192.5c0-7.85-6.92-15.36-15-15S356,184.09,356,192.5Z" transform="translate(-13.02 -6.12)"/><path class="cls-1" d="M457.71,445.58l-16.86,16.86c-1.17,1.17-2.41,2.31-3.54,3.54-.08.08-.72.6-.69.69-.41-1.41,5.44-1.33,5.73-1.22,1.75.63,2.41,1.86.81.21-8.08-8.35-16.44-16.45-24.66-24.66l-84-84-13.6-13.59c-.73-.74-4.62-5.78-5.73-5.74,2.5-.1.75,8.14,0,7.58.06,0,1.68-1.68,1.77-1.76l9.85-9.85c2.91-2.92,6-5.74,8.78-8.78,0,0,.7-.69.69-.7.56.67-5.14,1.45-5.74,1.23-.4-.15-2-1.85-1.67-1.08,1.1,2.38,4.93,4.93,6.75,6.75l14.3,14.31,41.88,41.87L434,429.5l15.18,15.17c2.59,2.59,5.08,5.62,7.93,7.93.1.08.44.57.56.56-2.36.1-1-6.41,0-7.58-5.1,5.91-5.81,14.64,0,20.45,5.21,5.21,15.32,5.94,20.44,0,9.4-10.89,8.47-24.79-1.51-34.78L466,420.59l-41.09-41.1c-24.88-24.88-49.53-50-74.66-74.65-9.81-9.62-24.2-10.65-34.5-1-6.54,6.12-12.69,12.69-19,19-10.18,10.18-12,24.71-1.57,35.65,2.69,2.84,5.54,5.55,8.31,8.32l85.82,85.81L421,484.35c6.59,6.59,14.65,11.41,24.53,9.06,10.56-2.51,18.51-13.24,25.88-20.62l6.77-6.76C491.32,452.86,470.89,432.41,457.71,445.58Z" transform="translate(-13.02 -6.12)"/><path class="cls-1" d="M238.45,127.42c-22.64-3.89-43,9.27-52.9,29.42h25.9c-9.51-19.33-29.65-33.45-51.72-29.62-21.12,3.66-36.24,22.27-37.63,43.23-1,15.67,7.73,28.72,17.27,40.26,8.77,10.59,19,20,29.5,28.83,7.15,6,14.49,11.91,22.06,17.41,3.91,2.85,11.23,2.85,15.14,0a359,359,0,0,0,36.17-30,168.22,168.22,0,0,0,23.34-26.66c7.36-10.78,10.53-22.15,8.66-35.18-2.68-18.58-17.62-33.68-35.79-37.68-7.64-1.68-16.59,2.3-18.45,10.48-1.73,7.58,2.28,16.65,10.48,18.45,1.37.3,2.69.69,4,1.07.6.17,2.51,1.18.19,0,.6.3,1.2.6,1.78.93s3.39,2.22,2.31,1.38c-1.31-1,.36.34.5.49.58.62,1.21,1.25,1.83,1.83,1.92,1.79.53.59.1,0,.37.53.75,1.06,1.07,1.62s1.94,3.59,1.34,2.25.8,2.59,1,3.2a14.72,14.72,0,0,1,.41,2c.43,2.24-.07-2.25-.06.07,0,1.38-.08,2.82,0,4.19.07,1.74,1-3.76,0-.48-.22.72-.42,1.46-.63,2.18-.1.37-.33.74-.4,1.12-.26,1.55,1.4-2.74.57-1.32-2.14,3.67-4.09,7.26-6.54,10.76-1.6,2.28,1.63-2-.18.25-.8,1-1.58,1.94-2.39,2.89q-2.32,2.73-4.77,5.36c-3.47,3.73-7.09,7.31-10.81,10.79-6.55,6.16-13.39,12-20.4,17.64-1.5,1.21-3,2.39-4.53,3.58-2.36,1.86,2.38-1.8.76-.58-.5.37-1,.76-1.49,1.14-1.06.8-2.12,1.6-3.2,2.39h15.14c-1.14-.83-2.27-1.69-3.4-2.54-.59-.45-1.16-.93-1.77-1.36,4.31,3,1.38,1.07.4.3-1.68-1.33-3.35-2.67-5-4a315.06,315.06,0,0,1-25.57-22.88c-4.16-4.19-8-8.62-11.78-13.13-1.32-1.57,1.52,2.27.45.57-.27-.43-.61-.82-.9-1.23q-1.15-1.59-2.22-3.24c-1.4-2.17-2.44-4.49-3.73-6.7-.22-.38,1,3.13.17.2-.26-.95-.47-2-.78-2.89-.7-2.06.36,1.62.23,1.9a16.61,16.61,0,0,0-.14-2.82c0-.93.07-1.84.1-2.77-.07,2.14-.14.63.16-.69.2-.87.45-1.71.69-2.57.12-.42,1.16-3,.41-1.28s.25-.39.36-.56c.45-.69.91-1.51,1.32-2.24,1.3-2.33.44-.62,0-.08.57-.65,1.14-1.29,1.76-1.91s1.25-1.19,1.91-1.75c-1.61,1.37-.35.26.69-.34l2.32-1.3c1.37-.77-1.83.44.79-.31.86-.25,1.81-.47,2.67-.76,2.75-1-1-.28.35-.16.77.07,1.61,0,2.39-.06,1.78,0,2.17.36.22-.09.8.18,1.59.33,2.39.56.38.1,3.6,1.26,1.75.5s.71.39,1.11.61c.95.55,1.87,1.13,2.81,1.7.47.28,2.13,1.72.21.09.89.75,1.74,1.54,2.56,2.36s1.31,1.38,2,2.09c1,1-.54-1.06.82,1a66.13,66.13,0,0,1,3.84,6.69c4.82,9.8,21.08,9.8,25.9,0a56.24,56.24,0,0,1,3-5.43c.2-.32,2.76-3.63,1.17-1.75,1.23-1.46,2.61-2.72,4-4.08q2-1.69.15-.24c.54-.39,1.09-.77,1.66-1.12a36.23,36.23,0,0,1,4-2.21c-3.05,1.46,1-.15,1.73-.4a10.33,10.33,0,0,1,1.79-.4c-2,.22-2.11.25-.38.11.87,0,5.9.57,2-.11,7.7,1.33,16.53-2,18.45-10.47C250.59,138.6,246.72,128.85,238.45,127.42Z" transform="translate(-13.02 -6.12)"/></svg>